<svg xmlns="http://www.w3.org/2000/svg" viewBox="0 0 1123 794" width="1123" height="794" style="background:#f8fafc; font-family:'Outfit', 'Inter', sans-serif;">
  <!-- Gradients, Filters & Branding Symbols -->
  <defs>
    <linearGradient id="primary-grad" x1="0%" y1="0%" x2="100%" y2="100%">
      <stop offset="0%" stop-color="#228be6" />
      <stop offset="50%" stop-color="#3b5bdb" />
      <stop offset="100%" stop-color="#7048e8" />
    </linearGradient>
    <linearGradient id="accent-grad" x1="0%" y1="0%" x2="100%" y2="100%">
      <stop offset="0%" stop-color="#1098ad" />
      <stop offset="100%" stop-color="#0ca678" />
    </linearGradient>
    <linearGradient id="warning-grad" x1="0%" y1="0%" x2="100%" y2="100%">
      <stop offset="0%" stop-color="#ff922b" />
      <stop offset="100%" stop-color="#f03e3e" />
    </linearGradient>
    <linearGradient id="bg-grad" x1="0%" y1="0%" x2="100%" y2="100%">
      <stop offset="0%" stop-color="#f8fafc" />
      <stop offset="50%" stop-color="#ffffff" />
      <stop offset="100%" stop-color="#f1f5f9" />
    </linearGradient>
    <linearGradient id="card-grad" x1="0%" y1="0%" x2="100%" y2="100%">
      <stop offset="0%" stop-color="#ffffff" />
      <stop offset="100%" stop-color="#f8fafc" />
    </linearGradient>
    <filter id="glow" x="-30%" y="-30%" width="160%" height="160%">
      <feGaussianBlur stdDeviation="25" result="blur" />
      <feComposite in="SourceGraphic" in2="blur" operator="over" />
    </filter>
    <filter id="shadow" x="-10%" y="-10%" width="120%" height="120%">
      <feDropShadow dx="0" dy="6" stdDeviation="10" flood-color="#0f172a" flood-opacity="0.03" />
    </feDropShadow>
  </defs>

  <!-- Fond Général -->
  <rect width="1123" height="794" fill="url(#bg-grad)" />

  <!-- Décorations de fond vectorielles (Premium Glowing Blobs) -->
  <circle cx="50" cy="50" r="280" fill="#7048e8" opacity="0.03" filter="url(#glow)" />
  <circle cx="1073" cy="740" r="320" fill="#1098ad" opacity="0.02" filter="url(#glow)" />
  <circle cx="561" cy="400" r="200" fill="#3b5bdb" opacity="0.02" filter="url(#glow)" />

  <!-- Lignes de Pliage Subtiles (Guides techniques A4 tri-fold) -->
  <line x1="374.33" y1="0" x2="374.33" y2="794" stroke="#0f172a" stroke-opacity="0.05" stroke-dasharray="6,6" stroke-width="1.5" />
  <line x1="748.66" y1="0" x2="748.66" y2="794" stroke="#0f172a" stroke-opacity="0.05" stroke-dasharray="6,6" stroke-width="1.5" />

  <!-- ==================== VOLET 4 : QUI SOMMES-NOUS & 60s (À GAUCHE) ==================== -->
  <g transform="translate(0, 0)">
    <!-- Entête Qui sommes-nous -->
    <rect x="30" y="45" width="36" height="36" rx="9" fill="url(#primary-grad)" fill-opacity="0.08" />
    <g transform="translate(38, 53)">
      <!-- Custom Vector networks nodes icon -->
      <circle cx="9" cy="5" r="2.5" fill="url(#primary-grad)"/>
      <circle cx="4" cy="13" r="2.5" fill="url(#primary-grad)"/>
      <circle cx="14" cy="13" r="2.5" fill="url(#primary-grad)"/>
      <line x1="9" y1="7.5" x2="5.5" y2="11" stroke="url(#primary-grad)" stroke-width="1.5"/>
      <line x1="9" y1="7.5" x2="12.5" y2="11" stroke="url(#primary-grad)" stroke-width="1.5"/>
      <line x1="6.5" y1="13" x2="11.5" y2="13" stroke="url(#primary-grad)" stroke-width="1.5"/>
    </g>
    <text x="76" y="68" fill="#0f172a" font-family="'Outfit', sans-serif" font-size="17.5" font-weight="800" letter-spacing="0.5">Qui sommes-nous ?</text>
    
    <!-- Séparateur -->
    <rect x="30" y="92" width="314" height="1.5" fill="url(#primary-grad)" opacity="0.2" rx="1" />

    <!-- Paragraphes Qui sommes-nous (Aérés & Agrandis) -->
    <g font-family="'Inter', sans-serif" font-size="12.5" font-weight="500" fill="#334155">
      <text x="30" y="118">Opays Tech est un cabinet d'ingénierie de l'efficience.</text>
      <text x="30" y="136">Nous aidons les entreprises, institutions et organisations à</text>
      <text x="30" y="154">clarifier leurs méthodes de travail, simplifier leurs opérations</text>
      <text x="30" y="172">et automatiser ce qui peut l'être.</text>

      <text x="30" y="200" fill="#475569" font-weight="normal">Notre approche est simple : nous observons, nous identifions</text>
      <text x="30" y="218" fill="#475569" font-weight="normal">où le temps, l'argent et l'énergie se perdent. Ensuite,</text>
      <text x="30" y="236" fill="#475569" font-weight="normal">nous construisons un système adapté au besoin réel.</text>

      <!-- Citation clé mise en valeur (Encadré premium) -->
      <rect x="30" y="258" width="314" height="74" rx="12" fill="url(#card-grad)" stroke="#e2e8f0" stroke-width="1" />
      <rect x="30" y="258" width="3" height="74" rx="1.5" fill="url(#primary-grad)" />
      
      <!-- Vector Quote symbol -->
      <path d="M 44,272 Q 44,264 48,264 Q 50,268 47,272 M 52,272 Q 52,264 56,264 Q 58,268 55,272" stroke="url(#primary-grad)" stroke-width="2" fill="none" opacity="0.4" />
      
      <text x="44" y="290" fill="#0f172a" font-family="'Outfit', sans-serif" font-size="12" font-weight="800" font-style="italic">" Nous ne vendons pas de la technologie pour</text>
      <text x="44" y="308" fill="#0f172a" font-family="'Outfit', sans-serif" font-size="12" font-weight="800" font-style="italic">  impressionner. Nous vendons la suppression des coûts. "</text>
    </g>

    <!-- Section : Opays Tech en 60 secondes -->
    <rect x="30" y="355" width="36" height="36" rx="9" fill="url(#accent-grad)" fill-opacity="0.08" />
    <g transform="translate(38, 363)">
      <!-- Custom Vector Thunderbolt Icon -->
      <path d="M11.5 1H6.7c-.55 0-1 .45-1 .8l-1.8 9c-.1.5.3.9.8.9h4.1l-1.8 6.3c-.15.55.55.9.85.45l7-10.5c.35-.55-.05-1.25-.7-1.25H12l1.8-4.5c.15-.55-.25-1.2-.8-1.2z" fill="url(#accent-grad)"/>
    </g>
    <text x="76" y="378" fill="#0f172a" font-family="'Outfit', sans-serif" font-size="17.5" font-weight="800" letter-spacing="0.5">Opays Tech en 60 secondes</text>
    
    <!-- Séparateur -->
    <rect x="30" y="402" width="314" height="1.5" fill="url(#accent-grad)" opacity="0.2" rx="1" />

    <!-- Paragraphes 60 secondes (Aérés & Agrandis) -->
    <g font-family="'Inter', sans-serif" font-size="12.2" font-weight="500" fill="#334155">
      <text x="30" y="428" fill="#0f172a" font-family="'Outfit', sans-serif" font-size="13.5" font-weight="bold">Opays Tech aide les entreprises à mieux travailler.</text>

      <text x="30" y="454" fill="#475569">Nous observons d'abord comment l'organisation fonctionne</text>
      <text x="30" y="471" fill="#475569">réellement : les tâches qui se répètent, les documents qui se</text>
      <text x="30" y="488" fill="#475569">perdent, les validations qui ralentissent tout, les informations</text>
      <text x="30" y="505" fill="#475569">que personne ne retrouve au bon moment.</text>

      <text x="30" y="531">Ensuite, nous identifions les pertes de temps et d'argent,</text>
      <text x="30" y="548">puis nous construisons une solution adaptée : outil interne,</text>
      <text x="30" y="565">tableau de suivi, automatisation, assistant IA, base de</text>
      <text x="30" y="582">connaissances ou application métier.</text>

      <!-- Promesse terrain mise en valeur -->
      <rect x="30" y="608" width="314" height="88" rx="12" fill="#0ca678" fill-opacity="0.04" stroke="#0ca678" stroke-opacity="0.15" stroke-width="1.2" />
      <g transform="translate(42, 608)" fill="#097969" font-family="'Outfit', sans-serif" font-size="12.5" font-weight="700">
        <text x="0" y="24">Notre promesse est simple : moins de désordre,</text>
        <text x="0" y="42">moins de tâches inutiles, plus de visibilité</text>
        <text x="0" y="60">et des équipes qui travaillent avec plus de clarté.</text>
      </g>

      <text x="30" y="718" fill="#475569">Opays Tech ne vend pas la technologie pour la technologie.</text>
      <text x="30" y="735" fill="#475569">Nous aidons les organisations à reprendre le contrôle.</text>
    </g>
  </g>

  <!-- ==================== VOLET 5 : LES 4 PILIERS D'INTERVENTION (AU MILIEU) ==================== -->
  <g transform="translate(374.33, 0)">
    <!-- Section Titre -->
    <rect x="30" y="45" width="36" height="36" rx="9" fill="url(#accent-grad)" fill-opacity="0.08" />
    <g transform="translate(38, 53)">
      <!-- Custom Vector Settings Gear/Tool Icon -->
      <path d="M15.5 8.5c.06-.31.1-.62.1-.94 0-.32-.04-.63-.1-.94l1.83-1.43c.17-.13.22-.37.1-.56l-1.73-3c-.1-.17-.35-.24-.54-.17l-2.15.87c-.45-.35-.95-.63-1.5-.83L11.13.22c-.04-.2-.21-.35-.42-.35H7.29c-.21 0-.38.15-.42.35L6.5 2.5c-.55.2-1.05.48-1.5.83l-2.15-.87c-.19-.07-.44 0-.54.17l-1.73 3c-.11.19-.06.43.1.56l1.83 1.43c-.06.31-.1.63-.1.94s.04.63.1.94L.73 9.94c-.17.13-.22.37-.1.56l1.73 3c.1.17.35.24.54.17l2.15-.87c.45.35.95.63 1.5.83l.37 2.28c.04.2.21.35.42.35h3.42c.21 0 .38-.15.42-.35l.37-2.28c.55-.2 1.05-.48 1.5-.83l2.15.87c.19.07.44 0 .54-.17l1.73-3c.11-.19.06-.43-.1-.56l-1.83-1.43zM8.88 10.3c-1.49 0-2.7-1.21-2.7-2.7s1.21-2.7 2.7-2.7 2.7 1.21 2.7 2.7-1.21 2.7-2.7 2.7z" fill="url(#accent-grad)"/>
    </g>
    <text x="76" y="68" fill="#0f172a" font-family="'Outfit', sans-serif" font-size="17.5" font-weight="800" letter-spacing="0.5">Nos 4 piliers d'intervention</text>
    
    <!-- Séparateur -->
    <rect x="30" y="92" width="314" height="1.5" fill="url(#accent-grad)" opacity="0.2" rx="1" />

    <!-- 1. Audit d'efficience (Premium Card) -->
    <g transform="translate(30, 110)">
      <rect x="0" y="0" width="314" height="142" rx="14" fill="url(#card-grad)" stroke="#e2e8f0" stroke-width="1.2" filter="url(#shadow)" />
      <!-- Indicator Number Badge -->
      <rect x="12" y="12" width="24" height="24" rx="6" fill="url(#primary-grad)" />
      <text x="24" y="29" fill="#ffffff" font-family="'Outfit', sans-serif" font-size="12.5" font-weight="800" text-anchor="middle">1</text>
      
      <text x="46" y="29" fill="#0f172a" font-family="'Outfit', sans-serif" font-size="14.2" font-weight="800">Audit d'efficience</text>
      
      <g font-family="'Inter', sans-serif" font-size="12" font-weight="500" fill="#475569">
        <text x="12" y="56">Nous analysons le fonctionnement de votre structure pour</text>
        <text x="12" y="73">repérer les tâches redondantes, les blocages, les</text>
        <text x="12" y="90">erreurs fréquentes et les pertes invisibles.</text>
      </g>
      
      <rect x="12" y="105" width="290" height="25" rx="6" fill="#7048e8" fill-opacity="0.04" />
      <text x="18" y="121" fill="#7048e8" font-family="'Outfit', sans-serif" font-size="11" font-weight="800">Objectif : <tspan fill="#334155" font-family="'Inter', sans-serif" font-weight="500">Savoir clairement où l'entreprise perd du temps.</tspan></text>
    </g>

    <!-- 2. Conception de solutions -->
    <g transform="translate(30, 268)">
      <rect x="0" y="0" width="314" height="142" rx="14" fill="url(#card-grad)" stroke="#e2e8f0" stroke-width="1.2" filter="url(#shadow)" />
      <rect x="12" y="12" width="24" height="24" rx="6" fill="#1098ad" />
      <text x="24" y="29" fill="#ffffff" font-family="'Outfit', sans-serif" font-size="12.5" font-weight="800" text-anchor="middle">2</text>
      
      <text x="46" y="29" fill="#0f172a" font-family="'Outfit', sans-serif" font-size="14.2" font-weight="800">Conception de solutions</text>
      
      <g font-family="'Inter', sans-serif" font-size="12" font-weight="500" fill="#475569">
        <text x="12" y="56">Nous transformons vos besoins en solutions concrètes :</text>
        <text x="12" y="73">outils internes, tableaux de suivi, automatisations,</text>
        <text x="12" y="90">systèmes de gestion ou assistants IA.</text>
      </g>
      
      <rect x="12" y="105" width="290" height="25" rx="6" fill="#1098ad" fill-opacity="0.04" />
      <text x="18" y="121" fill="#0b7285" font-family="'Outfit', sans-serif" font-size="11" font-weight="800">Objectif : <tspan fill="#334155" font-family="'Inter', sans-serif" font-weight="500">Créer un système utile et adapté à votre travail.</tspan></text>
    </g>

    <!-- 3. Mise en place -->
    <g transform="translate(30, 426)">
      <rect x="0" y="0" width="314" height="142" rx="14" fill="url(#card-grad)" stroke="#e2e8f0" stroke-width="1.2" filter="url(#shadow)" />
      <rect x="12" y="12" width="24" height="24" rx="6" fill="#0ca678" />
      <text x="24" y="29" fill="#ffffff" font-family="'Outfit', sans-serif" font-size="12.5" font-weight="800" text-anchor="middle">3</text>
      
      <text x="46" y="29" fill="#0f172a" font-family="'Outfit', sans-serif" font-size="14.2" font-weight="800">Mise en place</text>
      
      <g font-family="'Inter', sans-serif" font-size="12" font-weight="500" fill="#475569">
        <text x="12" y="56">Nous installons, configurons et testons les solutions avec</text>
        <text x="12" y="73">vos équipes. Notre but est de livrer un système</text>
        <text x="12" y="90">simple, que vos collaborateurs adoptent réellement.</text>
      </g>
      
      <rect x="12" y="105" width="290" height="25" rx="6" fill="#0ca678" fill-opacity="0.04" />
      <text x="18" y="121" fill="#097969" font-family="'Outfit', sans-serif" font-size="11" font-weight="800">Objectif : <tspan fill="#334155" font-family="'Inter', sans-serif" font-weight="500">Passer du problème à un outil opérationnel.</tspan></text>
    </g>

    <!-- 4. Suivi et amélioration -->
    <g transform="translate(30, 584)">
      <rect x="0" y="0" width="314" height="142" rx="14" fill="url(#card-grad)" stroke="#e2e8f0" stroke-width="1.2" filter="url(#shadow)" />
      <rect x="12" y="12" width="24" height="24" rx="6" fill="#7048e8" />
      <text x="24" y="29" fill="#ffffff" font-family="'Outfit', sans-serif" font-size="12.5" font-weight="800" text-anchor="middle">4</text>
      
      <text x="46" y="29" fill="#0f172a" font-family="'Outfit', sans-serif" font-size="14.2" font-weight="800">Suivi et amélioration</text>
      
      <g font-family="'Inter', sans-serif" font-size="12" font-weight="500" fill="#475569">
        <text x="12" y="56">Après la mise en place, nous analysons les résultats,</text>
        <text x="12" y="73">corrigeons les blocages éventuels et faisons évoluer</text>
        <text x="12" y="90">le système avec la croissance de votre entreprise.</text>
      </g>
      
      <rect x="12" y="105" width="290" height="25" rx="6" fill="#7048e8" fill-opacity="0.04" />
      <text x="18" y="121" fill="#7048e8" font-family="'Outfit', sans-serif" font-size="11" font-weight="800">Objectif : <tspan fill="#334155" font-family="'Inter', sans-serif" font-weight="500">Garder un outil vivant, utile et rentable.</tspan></text>
    </g>
  </g>

  <!-- ==================== VOLET 6 : FUITES, BÉNÉFICES, PROMESSE & PHILOSOPHIE (À DROITE) ==================== -->
  <g transform="translate(748.66, 0)">
    <!-- Fuites Opérationnelles Éliminées -->
    <rect x="30" y="45" width="36" height="36" rx="9" fill="url(#warning-grad)" fill-opacity="0.08" />
    <g transform="translate(38, 53)">
      <!-- Custom Vector Warning Magnifying Glass Icon -->
      <path d="M15.5 14L11.8 10.3c.7-.9 1.2-2.1 1.2-3.3C13 3.6 10.4 1 7.2 1S1.5 3.6 1.5 6.8s2.6 5.7 5.7 5.7c1.3 0 2.4-.4 3.3-1.2L14.3 15.2c.15.15.4.15.55 0l.65-.65c.15-.15.15-.4 0-.55zm-8.3-3c-2.3 0-4.2-1.9-4.2-4.2s1.9-4.2 4.2-4.2 4.2 1.9 4.2 4.2-1.9 4.2-4.2 4.2zm-2.8-5h5.6v1.5H4.4V6z" fill="url(#warning-grad)"/>
    </g>
    <text x="76" y="68" fill="#0f172a" font-family="'Outfit', sans-serif" font-size="16" font-weight="800" letter-spacing="0.5">Les fuites éliminées</text>
    
    <!-- Séparateur -->
    <rect x="30" y="92" width="314" height="1.5" fill="url(#warning-grad)" opacity="0.2" rx="1" />
    
    <!-- List of leaks (Emoji-free elegant icons) -->
    <g transform="translate(30, 108)" font-family="'Inter', sans-serif" font-size="12" font-weight="500" fill="#334155">
      <!-- Item 1 -->
      <g transform="translate(0, 0)">
        <circle cx="8" cy="8" r="8" fill="#f03e3e" fill-opacity="0.1" />
        <path d="M6 8.5 L7.5 10 L10 6" stroke="#f03e3e" stroke-width="1.5" fill="none" stroke-linecap="round" />
        <text x="24" y="12" font-weight="600" fill="#0f172a">Perte de temps : <tspan font-weight="normal" fill="#475569">Saisie manuelle ou recherche d'infos.</tspan></text>
      </g>

      <!-- Item 2 -->
      <g transform="translate(0, 26)">
        <circle cx="8" cy="8" r="8" fill="#f03e3e" fill-opacity="0.1" />
        <path d="M6 8.5 L7.5 10 L10 6" stroke="#f03e3e" stroke-width="1.5" fill="none" stroke-linecap="round" />
        <text x="24" y="12" font-weight="600" fill="#0f172a">Suivi clients &amp; projets : <tspan font-weight="normal" fill="#475569">Processus mal structuré.</tspan></text>
      </g>

      <!-- Item 3 -->
      <g transform="translate(0, 52)">
        <circle cx="8" cy="8" r="8" fill="#f03e3e" fill-opacity="0.1" />
        <path d="M6 8.5 L7.5 10 L10 6" stroke="#f03e3e" stroke-width="1.5" fill="none" stroke-linecap="round" />
        <text x="24" y="12" font-weight="600" fill="#0f172a">Dispersion : <tspan font-weight="normal" fill="#475569">Infos entre WhatsApp, Excel &amp; papiers.</tspan></text>
      </g>

      <!-- Item 4 -->
      <g transform="translate(0, 78)">
        <circle cx="8" cy="8" r="8" fill="#f03e3e" fill-opacity="0.1" />
        <path d="M6 8.5 L7.5 10 L10 6" stroke="#f03e3e" stroke-width="1.5" fill="none" stroke-linecap="round" />
        <text x="24" y="12" font-weight="600" fill="#0f172a">Visibilité : <tspan font-weight="normal" fill="#475569">Manque de suivi des tâches et des délais.</tspan></text>
      </g>

      <!-- Item 5 -->
      <g transform="translate(0, 104)">
        <circle cx="8" cy="8" r="8" fill="#f03e3e" fill-opacity="0.1" />
        <path d="M6 8.5 L7.5 10 L10 6" stroke="#f03e3e" stroke-width="1.5" fill="none" stroke-linecap="round" />
        <text x="24" y="12" font-weight="600" fill="#0f172a">Dépendance : <tspan font-weight="normal" fill="#475569">Processus liés à une seule personne.</tspan></text>
      </g>

      <!-- Item 6 -->
      <g transform="translate(0, 130)">
        <circle cx="8" cy="8" r="8" fill="#f03e3e" fill-opacity="0.1" />
        <path d="M6 8.5 L7.5 10 L10 6" stroke="#f03e3e" stroke-width="1.5" fill="none" stroke-linecap="round" />
        <text x="24" y="12" font-weight="600" fill="#0f172a">Décisions : <tspan font-weight="normal" fill="#475569">Données difficiles à extraire et exploiter.</tspan></text>
      </g>
    </g>

    <!-- Les bénéfices réels -->
    <rect x="30" y="275" width="36" height="36" rx="9" fill="url(#accent-grad)" fill-opacity="0.08" />
    <g transform="translate(38, 283)">
      <!-- Custom Vector Trend Chart Up Icon -->
      <path d="M1.5 14.5h15v-13h-15v13zm15-7.5l-4 4-2.5-2.5-3.5 3.5M6.5 2h5v1.5h-5V2z" stroke="url(#accent-grad)" stroke-width="1.5" fill="none" stroke-linecap="round" stroke-linejoin="round"/>
    </g>
    <text x="76" y="298" fill="#0f172a" font-family="'Outfit', sans-serif" font-size="16" font-weight="800" letter-spacing="0.5">Les bénéfices réels</text>
    
    <!-- Séparateur -->
    <rect x="30" y="322" width="314" height="1.5" fill="url(#accent-grad)" opacity="0.2" rx="1" />
    
    <!-- List of benefits (Beautiful inline check vector) -->
    <g transform="translate(30, 338)" font-family="'Inter', sans-serif" font-size="12" font-weight="500" fill="#334155">
      <!-- Item 1 -->
      <g transform="translate(0, 0)">
        <circle cx="8" cy="8" r="8" fill="#0ca678" fill-opacity="0.10" />
        <path d="M5 8 L7 10 L11 5" stroke="#0ca678" stroke-width="1.8" fill="none" stroke-linecap="round" />
        <text x="24" y="12" font-weight="700" fill="#0f172a">Clarté : <tspan font-weight="normal" fill="#475569">Une organisation quotidienne plus nette.</tspan></text>
      </g>

      <!-- Item 2 -->
      <g transform="translate(0, 26)">
        <circle cx="8" cy="8" r="8" fill="#0ca678" fill-opacity="0.10" />
        <path d="M5 8 L7 10 L11 5" stroke="#0ca678" stroke-width="1.8" fill="none" stroke-linecap="round" />
        <text x="24" y="12" font-weight="700" fill="#0f172a">Temps : <tspan font-weight="normal" fill="#475569">Des tâches répétitives grandement réduites.</tspan></text>
      </g>

      <!-- Item 3 -->
      <g transform="translate(0, 52)">
        <circle cx="8" cy="8" r="8" fill="#0ca678" fill-opacity="0.10" />
        <path d="M5 8 L7 10 L11 5" stroke="#0ca678" stroke-width="1.8" fill="none" stroke-linecap="round" />
        <text x="24" y="12" font-weight="700" fill="#0f172a">Contrôle : <tspan font-weight="normal" fill="#475569">Une meilleure visibilité sur les dossiers.</tspan></text>
      </g>

      <!-- Item 4 -->
      <g transform="translate(0, 78)">
        <circle cx="8" cy="8" r="8" fill="#0ca678" fill-opacity="0.10" />
        <path d="M5 8 L7 10 L11 5" stroke="#0ca678" stroke-width="1.8" fill="none" stroke-linecap="round" />
        <text x="24" y="12" font-weight="700" fill="#0f172a">Qualité : <tspan font-weight="normal" fill="#475569">Moins d'erreurs et d'oublis de suivi.</tspan></text>
      </g>

      <!-- Item 5 -->
      <g transform="translate(0, 104)">
        <circle cx="8" cy="8" r="8" fill="#0ca678" fill-opacity="0.10" />
        <path d="M5 8 L7 10 L11 5" stroke="#0ca678" stroke-width="1.8" fill="none" stroke-linecap="round" />
        <text x="24" y="12" font-weight="700" fill="#0f172a">Bien-être : <tspan font-weight="normal" fill="#475569">Des équipes travaillant avec moins de fatigue.</tspan></text>
      </g>

      <!-- Item 6 -->
      <g transform="translate(0, 130)">
        <circle cx="8" cy="8" r="8" fill="#0ca678" fill-opacity="0.10" />
        <path d="M5 8 L7 10 L11 5" stroke="#0ca678" stroke-width="1.8" fill="none" stroke-linecap="round" />
        <text x="24" y="12" font-weight="700" fill="#0f172a">Décisions : <tspan font-weight="normal" fill="#475569">Des choix basés sur des bases fiables.</tspan></text>
      </g>
    </g>

    <!-- Notre philosophie d'action & Promesse de Marque -->
    <rect x="30" y="505" width="314" height="225" rx="16" fill="url(#card-grad)" stroke="#e2e8f0" stroke-width="1.2" filter="url(#shadow)" />
    
    <!-- Top accent border gradient -->
    <rect x="30" y="505" width="314" height="4" rx="2" fill="url(#primary-grad)" />

    <!-- Sparkle Vector Icon -->
    <g transform="translate(46, 522)">
      <path d="M9 1L11.5 6.5L17 9L11.5 11.5L9 17L6.5 11.5L1 9L6.5 6.5Z" fill="url(#primary-grad)"/>
    </g>
    <text x="68" y="534" fill="#3b5bdb" font-family="'Outfit', sans-serif" font-size="11.5" font-weight="800" letter-spacing="1">PROMESSE &amp; PHILOSOPHIE</text>
    <line x1="46" y1="546" x2="330" y2="546" stroke="#e2e8f0" stroke-width="1" />

    <g font-family="'Inter', sans-serif" font-size="11.5" font-weight="500" fill="#334155">
      <text x="46" y="570" font-family="'Outfit', sans-serif" font-weight="800" fill="#0f172a">Notre engagement :</text>
      <text x="46" y="587">Opays Tech aide les entreprises à clarifier, simplifier</text>
      <text x="46" y="603">et automatiser leurs opérations grâce à des solutions</text>
      <text x="46" y="619">numériques et IA adaptées à leur réalité terrain.</text>

      <text x="46" y="650" font-family="'Outfit', sans-serif" font-weight="800" fill="#0b7285">Notre philosophie :</text>
      <text x="46" y="668" font-style="italic" fill="#475569">"Avant d'ajouter un nouvel outil, il faut d'abord</text>
      <text x="46" y="684" font-style="italic" fill="#475569">comprendre où l'organisation perd son énergie."</text>
      <text x="46" y="704" font-weight="bold" fill="#0f172a">Nous identifions la fuite, puis construisons le système.</text>
    </g>
  </g>
</svg>
